<svg width="14" height="14" viewBox="0 0 14 14" fill="none" xmlns="http://www.w3.org/2000/svg">
<path d="M6.95768 0.333008C3.27102 0.333008 0.291016 3.31301 0.291016 6.99967C0.291016 10.6863 3.27102 13.6663 6.95768 13.6663C10.6443 13.6663 13.6243 10.6863 13.6243 6.99967C13.6243 3.31301 10.6443 0.333008 6.95768 0.333008ZM6.95768 12.333C4.01768 12.333 1.62435 9.93967 1.62435 6.99967C1.62435 4.05967 4.01768 1.66634 6.95768 1.66634C9.89768 1.66634 12.291 4.05967 12.291 6.99967C12.291 9.93967 9.89768 12.333 6.95768 12.333ZM9.35102 3.66634L6.95768 6.05967L4.56435 3.66634L3.62435 4.60634L6.01768 6.99967L3.62435 9.39301L4.56435 10.333L6.95768 7.93967L9.35102 10.333L10.291 9.39301L7.89768 6.99967L10.291 4.60634L9.35102 3.66634Z" fill="#58595B"/>
</svg>
