<svg width="16" height="16" viewBox="0 0 16 16" fill="none" xmlns="http://www.w3.org/2000/svg">
<path d="M13.9504 8.78333C13.9838 8.53333 14.0004 8.275 14.0004 8C14.0004 7.73333 13.9838 7.46667 13.9421 7.21667L15.6338 5.9C15.7838 5.78333 15.8254 5.55833 15.7338 5.39167L14.1338 2.625C14.0338 2.44167 13.8254 2.38333 13.6421 2.44167L11.6504 3.24167C11.2337 2.925 10.7921 2.65833 10.3004 2.45833L10.0004 0.341667C9.96708 0.141667 9.80042 0 9.60042 0H6.40042C6.20042 0 6.04208 0.141667 6.00875 0.341667L5.70875 2.45833C5.21708 2.65833 4.76708 2.93333 4.35875 3.24167L2.36708 2.44167C2.18375 2.375 1.97542 2.44167 1.87542 2.625L0.28375 5.39167C0.18375 5.56667 0.217084 5.78333 0.38375 5.9L2.07542 7.21667C2.03375 7.46667 2.00042 7.74167 2.00042 8C2.00042 8.25833 2.01708 8.53333 2.05875 8.78333L0.367084 10.1C0.217084 10.2167 0.175417 10.4417 0.267084 10.6083L1.86708 13.375C1.96708 13.5583 2.17542 13.6167 2.35875 13.5583L4.35042 12.7583C4.76708 13.075 5.20875 13.3417 5.70042 13.5417L6.00042 15.6583C6.04208 15.8583 6.20042 16 6.40042 16H9.60042C9.80042 16 9.96708 15.8583 9.99208 15.6583L10.2921 13.5417C10.7837 13.3417 11.2338 13.075 11.6421 12.7583L13.6338 13.5583C13.8171 13.625 14.0254 13.5583 14.1254 13.375L15.7254 10.6083C15.8254 10.425 15.7838 10.2167 15.6254 10.1L13.9504 8.78333ZM8.00042 11C6.35042 11 5.00042 9.65 5.00042 8C5.00042 6.35 6.35042 5 8.00042 5C9.65042 5 11.0004 6.35 11.0004 8C11.0004 9.65 9.65042 11 8.00042 11Z" fill="white"/>
</svg>
